<svg width="888" height="197" viewBox="0 0 888 197" fill="none" xmlns="http://www.w3.org/2000/svg">
<rect x="135.447" y="33.2085" width="34.5529" height="109.791" fill="#3B82F6"/>
<path d="M46.9918 77.9384H81.5447V143H46.9918V77.9384Z" fill="#3B82F6"/>
<rect x="91.2195" y="57.6066" width="34.5529" height="85.3934" fill="#3B82F6"/>
<rect x="2.76416" y="106.403" width="34.5529" height="36.5972" fill="#3B82F6"/>
<path d="M146 0V31.479L137.95 25.0895L112.587 54.9089L97.7406 70.6729L84.0205 87L69.9031 72.362L63.874 65.3287L53.2006 52.6569L45.2646 41.4878L40.8205 39.8342L39.3855 41.4878L32.5898 49.3493L25.7756 57.2204L18.7577 65.3287L18.665 65.4365L8.61966 77.0339L0 87L13.7211 65.4365L32.5898 35.7641L39.3855 25.0895L45.2646 15.8428L58.3008 31.479L63.874 38.1696L65.0961 39.6301L82.4837 60.464L84.0205 58.7242L90.8163 51.0566L93.8347 47.6523L102.621 37.7296L109.731 29.7074L122.795 14.8372L112.587 8.09302L146 0Z" fill="#2DFF34"/>
<path d="M241.301 132L211.073 39.6H233.249L259.517 121.44H248.429L275.885 39.6H295.685L322.085 121.44H311.393L338.321 39.6H358.781L328.553 132H305.585L282.221 60.192H288.293L264.269 132H241.301ZM410.182 132V118.14L408.862 115.104V90.288C408.862 85.888 407.498 82.456 404.77 79.992C402.13 77.528 398.038 76.296 392.494 76.296C388.71 76.296 384.97 76.912 381.274 78.144C377.666 79.288 374.586 80.872 372.034 82.896L364.642 68.508C368.514 65.78 373.178 63.668 378.634 62.172C384.09 60.676 389.634 59.928 395.266 59.928C406.09 59.928 414.494 62.48 420.478 67.584C426.462 72.688 429.454 80.652 429.454 91.476V132H410.182ZM388.534 133.056C382.99 133.056 378.238 132.132 374.278 130.284C370.318 128.348 367.282 125.752 365.17 122.496C363.058 119.24 362.002 115.588 362.002 111.54C362.002 107.316 363.014 103.62 365.038 100.452C367.15 97.284 370.45 94.82 374.938 93.06C379.426 91.212 385.278 90.288 392.494 90.288H411.37V102.3H394.738C389.898 102.3 386.554 103.092 384.706 104.676C382.946 106.26 382.066 108.24 382.066 110.616C382.066 113.256 383.078 115.368 385.102 116.952C387.214 118.448 390.074 119.196 393.682 119.196C397.114 119.196 400.194 118.404 402.922 116.82C405.65 115.148 407.63 112.728 408.862 109.56L412.03 119.064C410.534 123.64 407.806 127.116 403.846 129.492C399.886 131.868 394.782 133.056 388.534 133.056ZM479.77 133.056C471.41 133.056 464.898 130.944 460.234 126.72C455.57 122.408 453.238 116.028 453.238 107.58V45.276H473.83V107.316C473.83 110.308 474.622 112.64 476.206 114.312C477.79 115.896 479.946 116.688 482.674 116.688C485.93 116.688 488.702 115.808 490.99 114.048L496.534 128.568C494.422 130.064 491.87 131.208 488.878 132C485.974 132.704 482.938 133.056 479.77 133.056ZM442.282 78.408V62.568H491.518V78.408H442.282ZM542.862 133.056C535.206 133.056 528.386 131.516 522.402 128.436C516.418 125.268 511.71 120.912 508.278 115.368C504.934 109.824 503.262 103.532 503.262 96.492C503.262 89.364 504.934 83.072 508.278 77.616C511.71 72.072 516.418 67.76 522.402 64.68C528.386 61.512 535.206 59.928 542.862 59.928C550.342 59.928 556.854 61.512 562.398 64.68C567.942 67.76 572.034 72.204 574.674 78.012L558.702 86.592C556.854 83.248 554.522 80.784 551.706 79.2C548.978 77.616 545.986 76.824 542.73 76.824C539.21 76.824 536.042 77.616 533.226 79.2C530.41 80.784 528.166 83.028 526.494 85.932C524.91 88.836 524.118 92.356 524.118 96.492C524.118 100.628 524.91 104.148 526.494 107.052C528.166 109.956 530.41 112.2 533.226 113.784C536.042 115.368 539.21 116.16 542.73 116.16C545.986 116.16 548.978 115.412 551.706 113.916C554.522 112.332 556.854 109.824 558.702 106.392L574.674 115.104C572.034 120.824 567.942 125.268 562.398 128.436C556.854 131.516 550.342 133.056 542.862 133.056ZM631.948 59.928C637.58 59.928 642.596 61.072 646.996 63.36C651.484 65.56 655.004 68.992 657.556 73.656C660.108 78.232 661.384 84.128 661.384 91.344V132H640.792V94.512C640.792 88.792 639.516 84.568 636.964 81.84C634.5 79.112 630.98 77.748 626.404 77.748C623.148 77.748 620.2 78.452 617.56 79.86C615.008 81.18 612.984 83.248 611.488 86.064C610.08 88.88 609.376 92.488 609.376 96.888V132H588.784V34.056H609.376V80.652L604.756 74.712C607.308 69.96 610.96 66.308 615.712 63.756C620.464 61.204 625.876 59.928 631.948 59.928ZM682.689 132V34.056H703.281V132H682.689ZM725.033 132V60.984H745.625V132H725.033ZM735.329 51.084C731.545 51.084 728.465 49.984 726.089 47.784C723.713 45.584 722.525 42.856 722.525 39.6C722.525 36.344 723.713 33.616 726.089 31.416C728.465 29.216 731.545 28.116 735.329 28.116C739.113 28.116 742.193 29.172 744.569 31.284C746.945 33.308 748.133 35.948 748.133 39.204C748.133 42.636 746.945 45.496 744.569 47.784C742.281 49.984 739.201 51.084 735.329 51.084ZM791.268 133.056C785.196 133.056 779.344 132.352 773.712 130.944C768.168 129.448 763.768 127.6 760.512 125.4L767.376 110.616C770.632 112.64 774.46 114.312 778.86 115.632C783.348 116.864 787.748 117.48 792.06 117.48C796.812 117.48 800.156 116.908 802.092 115.764C804.116 114.62 805.128 113.036 805.128 111.012C805.128 109.34 804.336 108.108 802.752 107.316C801.256 106.436 799.232 105.776 796.68 105.336C794.128 104.896 791.312 104.456 788.232 104.016C785.24 103.576 782.204 103.004 779.124 102.3C776.044 101.508 773.228 100.364 770.676 98.868C768.124 97.372 766.056 95.348 764.472 92.796C762.976 90.244 762.228 86.944 762.228 82.896C762.228 78.408 763.504 74.448 766.056 71.016C768.696 67.584 772.48 64.9 777.408 62.964C782.336 60.94 788.232 59.928 795.096 59.928C799.936 59.928 804.864 60.456 809.88 61.512C814.896 62.568 819.076 64.108 822.42 66.132L815.556 80.784C812.124 78.76 808.648 77.396 805.128 76.692C801.696 75.9 798.352 75.504 795.096 75.504C790.52 75.504 787.176 76.12 785.064 77.352C782.952 78.584 781.896 80.168 781.896 82.104C781.896 83.864 782.644 85.184 784.14 86.064C785.724 86.944 787.792 87.648 790.344 88.176C792.896 88.704 795.668 89.188 798.66 89.628C801.74 89.98 804.82 90.552 807.9 91.344C810.98 92.136 813.752 93.28 816.216 94.776C818.768 96.184 820.836 98.164 822.42 100.716C824.004 103.18 824.796 106.436 824.796 110.484C824.796 114.884 823.476 118.8 820.836 122.232C818.196 125.576 814.368 128.216 809.352 130.152C804.424 132.088 798.396 133.056 791.268 133.056ZM869.181 133.056C860.821 133.056 854.309 130.944 849.645 126.72C844.981 122.408 842.649 116.028 842.649 107.58V45.276H863.241V107.316C863.241 110.308 864.033 112.64 865.617 114.312C867.201 115.896 869.357 116.688 872.085 116.688C875.341 116.688 878.113 115.808 880.401 114.048L885.945 128.568C883.833 130.064 881.281 131.208 878.289 132C875.385 132.704 872.349 133.056 869.181 133.056ZM831.693 78.408V62.568H880.929V78.408H831.693Z" fill="white"/>
</svg>
